<svg width="1440" height="403" viewBox="0 0 1440 403" fill="none" xmlns="http://www.w3.org/2000/svg">
<rect y="100" width="1440" height="303" fill="#FCFCFC"/>
<path d="M0 10L48 18.3438C96 26.5625 192 43.4375 288 53.3437C384 63.4375 480 66.5625 576 56.6563C672 46.5625 768 23.4375 864 21.6563C960 20 1056 40 1152 45C1248 50 1344 40 1392 35L1440 30V100H1392C1344 100 1248 100 1152 100C1056 100 960 100 864 100C768 100 672 100 576 100C480 100 384 100 288 100C192 100 96 100 48 100H0V10Z" fill="#FCFCFC"/>
</svg>
