<svg width="255" height="187" viewBox="0 0 255 187" fill="none" xmlns="http://www.w3.org/2000/svg">
<path d="M209.277 186.5C192.944 186.5 180.344 180.2 171.477 167.6C162.144 155 157.477 137.033 157.477 113.7C157.477 92.6998 162.144 73.0998 171.477 54.8998C180.81 37.1664 194.81 19.1998 213.477 0.99977C213.944 0.53311 214.644 0.299779 215.577 0.299779C216.977 0.299779 218.144 0.999777 219.077 2.39977C220.01 3.79977 220.01 4.96643 219.077 5.89977C196.21 29.2331 184.777 56.7664 184.777 88.4998C184.777 101.566 187.11 111.133 191.777 117.2C195.977 110.2 204.61 106.7 217.677 106.7C228.877 106.7 237.977 110.2 244.977 117.2C251.51 124.666 254.777 134.233 254.777 145.9C254.777 158.5 250.81 168.3 242.877 175.3C234.477 182.766 223.277 186.5 209.277 186.5ZM52.734 186.5C36.4007 186.5 23.8007 180.2 14.934 167.6C5.60066 155 0.933989 137.033 0.933986 113.7C0.933985 92.6998 5.60065 73.0998 14.934 54.8998C24.2673 37.1665 38.2673 19.1998 56.934 0.999784C57.4006 0.533123 58.1006 0.299793 59.034 0.299793C60.434 0.299793 61.6006 0.999791 62.534 2.39979C63.4673 3.79978 63.4673 4.96645 62.534 5.89978C39.6673 29.2331 28.234 56.7665 28.234 88.4998C28.234 101.566 30.5673 111.133 35.234 117.2C39.434 110.2 48.0673 106.7 61.134 106.7C72.334 106.7 81.434 110.2 88.434 117.2C94.9673 124.666 98.234 134.233 98.234 145.9C98.234 158.5 94.2673 168.3 86.334 175.3C77.934 182.766 66.734 186.5 52.734 186.5Z" fill="#F3F3F3"/>
</svg>
