<svg width="1440" height="202" viewBox="0 0 1440 202" fill="none" xmlns="http://www.w3.org/2000/svg">
<path d="M0 0H1440V153H0V0Z" fill="#04134E"/>
<path d="M0 202L48 195.881C96 189.854 192 177.479 288 170.215C384 162.813 480 160.521 576 167.785C672 175.187 768 192.146 864 193.452C960 194.667 1056 180 1152 176.333C1248 172.667 1344 180 1392 183.667L1440 187.333V136H1392C1344 136 1248 136 1152 136C1056 136 960 136 864 136C768 136 672 136 576 136C480 136 384 136 288 136C192 136 96 136 48 136H0V202Z" fill="#04134E"/>
</svg>
